<svg width="32" height="28" viewBox="0 0 32 28" fill="none" xmlns="http://www.w3.org/2000/svg">
<path d="M28 3.81277H8.5625L8.375 3.09787C8.16667 2.1844 7.69792 1.43972 6.96875 0.86383C6.23958 0.287943 5.375 0 4.375 0H1.3125C0.9375 0 0.625 0.119149 0.375 0.357447C0.125 0.595745 0 0.913475 0 1.31064C0 1.66809 0.125 1.96596 0.375 2.20426C0.625 2.44255 0.9375 2.5617 1.3125 2.5617H4.375C5.16667 2.5617 5.625 2.89929 5.75 3.57447L8.8125 18.8255C9.0625 19.6596 9.55208 20.3348 10.2812 20.8511C11.0104 21.3674 11.8125 21.6255 12.6875 21.6255H25.3125C25.7292 21.6255 26.0625 21.5064 26.3125 21.2681C26.5625 21.0298 26.6875 20.7319 26.6875 20.3745C26.6875 19.5007 26.2292 19.0638 25.3125 19.0638H12.6875C12.1042 19.0638 11.6875 18.8255 11.4375 18.3489L11.3125 17.8128H24.6875C25.5208 17.8128 26.2812 17.5745 26.9688 17.0979C27.6562 16.6213 28.125 16.0057 28.375 15.2511L32 7.9234V7.62553C32 6.55319 31.6146 5.64965 30.8438 4.91489C30.0729 4.18014 29.125 3.81277 28 3.81277ZM12 15.2511H10.8125L9.0625 6.37447H12V15.2511ZM17.3125 15.2511H14.6875V6.37447H17.3125V15.2511ZM22.6875 15.2511H20V6.37447H22.6875V15.2511ZM26 14.2383V14.3574C25.875 14.7546 25.6458 15.0128 25.3125 15.1319V6.37447H28C28.75 6.37447 29.1875 6.71206 29.3125 7.38723L26 14.2383ZM16 25.4383C16 26.1532 15.7396 26.7589 15.2188 27.2553C14.6979 27.7518 14.0625 28 13.3125 28C12.6042 28 11.9896 27.7518 11.4688 27.2553C10.9479 26.7589 10.6875 26.1532 10.6875 25.4383C10.6875 24.7234 10.9479 24.1177 11.4688 23.6213C11.9896 23.1248 12.6042 22.8766 13.3125 22.8766C14.0625 22.8766 14.6979 23.1248 15.2188 23.6213C15.7396 24.1177 16 24.7234 16 25.4383ZM26.6875 25.4383C26.6875 26.1532 26.4271 26.7589 25.9062 27.2553C25.3854 27.7518 24.75 28 24 28C23.25 28 22.6146 27.7518 22.0938 27.2553C21.5729 26.7589 21.3125 26.1532 21.3125 25.4383C21.3125 24.7234 21.5729 24.1177 22.0938 23.6213C22.6146 23.1248 23.25 22.8766 24 22.8766C24.75 22.8766 25.3854 23.1248 25.9062 23.6213C26.4271 24.1177 26.6875 24.7234 26.6875 25.4383Z" fill="black"/>
</svg>
